<svg width="44" height="50" viewBox="0 0 44 50" fill="none" xmlns="http://www.w3.org/2000/svg">
<path fill-rule="evenodd" clip-rule="evenodd" d="M43.0647 0.0287016L0.201257 18.849C0.0789901 18.9026 0 19.0237 0 19.1575V30.8426C0 30.9763 0.0789901 31.0974 0.201257 31.1511L43.0647 49.9713C43.2869 50.0689 43.5359 49.9058 43.5359 49.6628V38.2777C43.5359 38.144 43.4569 38.0229 43.3346 37.9692L14.4997 25.3085C14.2313 25.1907 14.2313 24.8093 14.4997 24.6915L43.3346 12.0308C43.4569 11.9771 43.5359 11.856 43.5359 11.7223V0.337224C43.5359 0.094201 43.2869 -0.068842 43.0647 0.0287016Z" fill="black"/>
<path fill-rule="evenodd" clip-rule="evenodd" d="M43.0647 0.0287016L0.201257 18.849C0.0789901 18.9026 0 19.0237 0 19.1575V30.8426C0 30.9763 0.0789901 31.0974 0.201257 31.1511L43.0647 49.9713C43.2869 50.0689 43.5359 49.9058 43.5359 49.6628V38.2777C43.5359 38.144 43.4569 38.0229 43.3346 37.9692L14.4997 25.3085C14.2313 25.1907 14.2313 24.8093 14.4997 24.6915L43.3346 12.0308C43.4569 11.9771 43.5359 11.856 43.5359 11.7223V0.337224C43.5359 0.094201 43.2869 -0.068842 43.0647 0.0287016Z" fill="#4AC959"/>
</svg>
